<mxfile host="app.diagrams.net" modified="2020-07-29T20:49:39.321Z" agent="5.0 (Windows)" etag="lAxoLF9eM9uHINO1b4qO" version="13.5.4" type="github">
  <diagram name="Page-1" id="c4acf3e9-155e-7222-9cf6-157b1a14988f">
    <mxGraphModel dx="1422" dy="755" grid="1" gridSize="10" guides="1" tooltips="1" connect="1" arrows="1" fold="1" page="1" pageScale="1" pageWidth="827" pageHeight="1169" background="#ffffff" math="0" shadow="0">
      <root>
        <mxCell id="0" />
        <mxCell id="1" parent="0" />
        <mxCell id="hp0SE5K4Sl0bse56-jCq-10" value="NeuralNetLayer" style="swimlane;fontStyle=1;align=center;verticalAlign=top;childLayout=stackLayout;horizontal=1;startSize=26;horizontalStack=0;resizeParent=1;resizeParentMax=0;resizeLast=0;collapsible=1;marginBottom=0;" vertex="1" parent="1">
          <mxGeometry x="240" y="450" width="210" height="114" as="geometry" />
        </mxCell>
        <mxCell id="hp0SE5K4Sl0bse56-jCq-12" value="- neurons: List&lt;Neuron&gt;" style="text;strokeColor=none;fillColor=none;align=left;verticalAlign=top;spacingLeft=4;spacingRight=4;overflow=hidden;rotatable=0;points=[[0,0.5],[1,0.5]];portConstraint=eastwest;" vertex="1" parent="hp0SE5K4Sl0bse56-jCq-10">
          <mxGeometry y="26" width="210" height="28" as="geometry" />
        </mxCell>
        <mxCell id="hp0SE5K4Sl0bse56-jCq-14" value="" style="line;strokeWidth=1;fillColor=none;align=left;verticalAlign=middle;spacingTop=-1;spacingLeft=3;spacingRight=3;rotatable=0;labelPosition=right;points=[];portConstraint=eastwest;" vertex="1" parent="hp0SE5K4Sl0bse56-jCq-10">
          <mxGeometry y="54" width="210" height="8" as="geometry" />
        </mxCell>
        <mxCell id="hp0SE5K4Sl0bse56-jCq-15" value="+ getNeuronOutputs(): double[]" style="text;strokeColor=none;fillColor=none;align=left;verticalAlign=top;spacingLeft=4;spacingRight=4;overflow=hidden;rotatable=0;points=[[0,0.5],[1,0.5]];portConstraint=eastwest;" vertex="1" parent="hp0SE5K4Sl0bse56-jCq-10">
          <mxGeometry y="62" width="210" height="26" as="geometry" />
        </mxCell>
        <mxCell id="hp0SE5K4Sl0bse56-jCq-16" value="- output(): double[]" style="text;strokeColor=none;fillColor=none;align=left;verticalAlign=top;spacingLeft=4;spacingRight=4;overflow=hidden;rotatable=0;points=[[0,0.5],[1,0.5]];portConstraint=eastwest;" vertex="1" parent="hp0SE5K4Sl0bse56-jCq-10">
          <mxGeometry y="88" width="210" height="26" as="geometry" />
        </mxCell>
        <mxCell id="hp0SE5K4Sl0bse56-jCq-5" value="NueralNetwork" style="swimlane;fontStyle=1;align=center;verticalAlign=top;childLayout=stackLayout;horizontal=1;startSize=26;horizontalStack=0;resizeParent=1;resizeParentMax=0;resizeLast=0;collapsible=1;marginBottom=0;" vertex="1" parent="1">
          <mxGeometry x="240" y="190" width="210" height="166" as="geometry" />
        </mxCell>
        <mxCell id="hp0SE5K4Sl0bse56-jCq-2" value="- inputLayer: NeuralNetLayer" style="text;strokeColor=none;fillColor=none;align=left;verticalAlign=top;spacingLeft=4;spacingRight=4;overflow=hidden;rotatable=0;points=[[0,0.5],[1,0.5]];portConstraint=eastwest;" vertex="1" parent="hp0SE5K4Sl0bse56-jCq-5">
          <mxGeometry y="26" width="210" height="26" as="geometry" />
        </mxCell>
        <mxCell id="hp0SE5K4Sl0bse56-jCq-3" value="- hiddenLayer: List&lt;NeuralNetLayer&gt;" style="text;strokeColor=none;fillColor=none;align=left;verticalAlign=top;spacingLeft=4;spacingRight=4;overflow=hidden;rotatable=0;points=[[0,0.5],[1,0.5]];portConstraint=eastwest;" vertex="1" parent="hp0SE5K4Sl0bse56-jCq-5">
          <mxGeometry y="52" width="210" height="28" as="geometry" />
        </mxCell>
        <mxCell id="hp0SE5K4Sl0bse56-jCq-4" value="- outputLayer: NeuralNetLayer" style="text;strokeColor=none;fillColor=none;align=left;verticalAlign=top;spacingLeft=4;spacingRight=4;overflow=hidden;rotatable=0;points=[[0,0.5],[1,0.5]];portConstraint=eastwest;" vertex="1" parent="hp0SE5K4Sl0bse56-jCq-5">
          <mxGeometry y="80" width="210" height="26" as="geometry" />
        </mxCell>
        <mxCell id="hp0SE5K4Sl0bse56-jCq-7" value="" style="line;strokeWidth=1;fillColor=none;align=left;verticalAlign=middle;spacingTop=-1;spacingLeft=3;spacingRight=3;rotatable=0;labelPosition=right;points=[];portConstraint=eastwest;" vertex="1" parent="hp0SE5K4Sl0bse56-jCq-5">
          <mxGeometry y="106" width="210" height="8" as="geometry" />
        </mxCell>
        <mxCell id="hp0SE5K4Sl0bse56-jCq-8" value="+ input(String, String): void" style="text;strokeColor=none;fillColor=none;align=left;verticalAlign=top;spacingLeft=4;spacingRight=4;overflow=hidden;rotatable=0;points=[[0,0.5],[1,0.5]];portConstraint=eastwest;" vertex="1" parent="hp0SE5K4Sl0bse56-jCq-5">
          <mxGeometry y="114" width="210" height="26" as="geometry" />
        </mxCell>
        <mxCell id="hp0SE5K4Sl0bse56-jCq-9" value="+ output(): double[]" style="text;strokeColor=none;fillColor=none;align=left;verticalAlign=top;spacingLeft=4;spacingRight=4;overflow=hidden;rotatable=0;points=[[0,0.5],[1,0.5]];portConstraint=eastwest;" vertex="1" parent="hp0SE5K4Sl0bse56-jCq-5">
          <mxGeometry y="140" width="210" height="26" as="geometry" />
        </mxCell>
        <mxCell id="hp0SE5K4Sl0bse56-jCq-17" value="" style="endArrow=diamondThin;endFill=1;endSize=24;html=1;entryX=0.5;entryY=1;entryDx=0;entryDy=0;exitX=0.5;exitY=0;exitDx=0;exitDy=0;" edge="1" parent="1" source="hp0SE5K4Sl0bse56-jCq-10" target="hp0SE5K4Sl0bse56-jCq-5">
          <mxGeometry width="160" relative="1" as="geometry">
            <mxPoint x="335" y="450" as="sourcePoint" />
            <mxPoint x="495" y="450" as="targetPoint" />
          </mxGeometry>
        </mxCell>
        <mxCell id="hp0SE5K4Sl0bse56-jCq-18" value="NeuralNetLayer" style="swimlane;fontStyle=1;align=center;verticalAlign=top;childLayout=stackLayout;horizontal=1;startSize=26;horizontalStack=0;resizeParent=1;resizeParentMax=0;resizeLast=0;collapsible=1;marginBottom=0;" vertex="1" parent="1">
          <mxGeometry x="240" y="450" width="210" height="114" as="geometry" />
        </mxCell>
        <mxCell id="hp0SE5K4Sl0bse56-jCq-19" value="- neurons: List&lt;Neuron&gt;" style="text;strokeColor=none;fillColor=none;align=left;verticalAlign=top;spacingLeft=4;spacingRight=4;overflow=hidden;rotatable=0;points=[[0,0.5],[1,0.5]];portConstraint=eastwest;" vertex="1" parent="hp0SE5K4Sl0bse56-jCq-18">
          <mxGeometry y="26" width="210" height="28" as="geometry" />
        </mxCell>
        <mxCell id="hp0SE5K4Sl0bse56-jCq-20" value="" style="line;strokeWidth=1;fillColor=none;align=left;verticalAlign=middle;spacingTop=-1;spacingLeft=3;spacingRight=3;rotatable=0;labelPosition=right;points=[];portConstraint=eastwest;" vertex="1" parent="hp0SE5K4Sl0bse56-jCq-18">
          <mxGeometry y="54" width="210" height="8" as="geometry" />
        </mxCell>
        <mxCell id="hp0SE5K4Sl0bse56-jCq-21" value="+ getNeuronOutputs(): double[]" style="text;strokeColor=none;fillColor=none;align=left;verticalAlign=top;spacingLeft=4;spacingRight=4;overflow=hidden;rotatable=0;points=[[0,0.5],[1,0.5]];portConstraint=eastwest;" vertex="1" parent="hp0SE5K4Sl0bse56-jCq-18">
          <mxGeometry y="62" width="210" height="26" as="geometry" />
        </mxCell>
        <mxCell id="hp0SE5K4Sl0bse56-jCq-22" value="- output(): double[]" style="text;strokeColor=none;fillColor=none;align=left;verticalAlign=top;spacingLeft=4;spacingRight=4;overflow=hidden;rotatable=0;points=[[0,0.5],[1,0.5]];portConstraint=eastwest;" vertex="1" parent="hp0SE5K4Sl0bse56-jCq-18">
          <mxGeometry y="88" width="210" height="26" as="geometry" />
        </mxCell>
        <mxCell id="hp0SE5K4Sl0bse56-jCq-23" value="Neuron" style="swimlane;fontStyle=1;align=center;verticalAlign=top;childLayout=stackLayout;horizontal=1;startSize=26;horizontalStack=0;resizeParent=1;resizeParentMax=0;resizeLast=0;collapsible=1;marginBottom=0;" vertex="1" parent="1">
          <mxGeometry x="540" y="450" width="210" height="144" as="geometry" />
        </mxCell>
        <mxCell id="hp0SE5K4Sl0bse56-jCq-24" value="- value: double" style="text;strokeColor=none;fillColor=none;align=left;verticalAlign=top;spacingLeft=4;spacingRight=4;overflow=hidden;rotatable=0;points=[[0,0.5],[1,0.5]];portConstraint=eastwest;" vertex="1" parent="hp0SE5K4Sl0bse56-jCq-23">
          <mxGeometry y="26" width="210" height="28" as="geometry" />
        </mxCell>
        <mxCell id="hp0SE5K4Sl0bse56-jCq-29" value="- inputConnections: ArrayList&lt;&gt;" style="text;strokeColor=none;fillColor=none;align=left;verticalAlign=top;spacingLeft=4;spacingRight=4;overflow=hidden;rotatable=0;points=[[0,0.5],[1,0.5]];portConstraint=eastwest;" vertex="1" parent="hp0SE5K4Sl0bse56-jCq-23">
          <mxGeometry y="54" width="210" height="28" as="geometry" />
        </mxCell>
        <mxCell id="hp0SE5K4Sl0bse56-jCq-30" value="- outputConnections: ArrayList&lt;&gt;" style="text;strokeColor=none;fillColor=none;align=left;verticalAlign=top;spacingLeft=4;spacingRight=4;overflow=hidden;rotatable=0;points=[[0,0.5],[1,0.5]];portConstraint=eastwest;" vertex="1" parent="hp0SE5K4Sl0bse56-jCq-23">
          <mxGeometry y="82" width="210" height="28" as="geometry" />
        </mxCell>
        <mxCell id="hp0SE5K4Sl0bse56-jCq-25" value="" style="line;strokeWidth=1;fillColor=none;align=left;verticalAlign=middle;spacingTop=-1;spacingLeft=3;spacingRight=3;rotatable=0;labelPosition=right;points=[];portConstraint=eastwest;" vertex="1" parent="hp0SE5K4Sl0bse56-jCq-23">
          <mxGeometry y="110" width="210" height="8" as="geometry" />
        </mxCell>
        <mxCell id="hp0SE5K4Sl0bse56-jCq-26" value="+ sigmoid(double): double" style="text;strokeColor=none;fillColor=none;align=left;verticalAlign=top;spacingLeft=4;spacingRight=4;overflow=hidden;rotatable=0;points=[[0,0.5],[1,0.5]];portConstraint=eastwest;" vertex="1" parent="hp0SE5K4Sl0bse56-jCq-23">
          <mxGeometry y="118" width="210" height="26" as="geometry" />
        </mxCell>
        <mxCell id="hp0SE5K4Sl0bse56-jCq-28" value="" style="endArrow=diamondThin;endFill=1;endSize=24;html=1;entryX=1.003;entryY=1.118;entryDx=0;entryDy=0;exitX=-0.011;exitY=0.118;exitDx=0;exitDy=0;entryPerimeter=0;exitPerimeter=0;" edge="1" parent="1" source="hp0SE5K4Sl0bse56-jCq-29" target="hp0SE5K4Sl0bse56-jCq-19">
          <mxGeometry width="160" relative="1" as="geometry">
            <mxPoint x="540" y="524" as="sourcePoint" />
            <mxPoint x="540" y="429.9999999999998" as="targetPoint" />
          </mxGeometry>
        </mxCell>
      </root>
    </mxGraphModel>
  </diagram>
</mxfile>
